<svg width="243" height="42" viewBox="0 0 243 42" fill="none" xmlns="http://www.w3.org/2000/svg">
<rect width="243" height="42" fill="black"/>
<path d="M20.7525 13.4545H24.5451L28.5508 23.2273H28.7212L32.7269 13.4545H36.5195V28H33.5366V18.5327H33.4158L29.6516 27.929H27.6204L23.8562 18.4972H23.7354V28H20.7525V13.4545ZM42.1286 13.4545V28H39.0533V13.4545H42.1286ZM44.6587 28V13.4545H47.734V25.4645H53.9698V28H44.6587ZM56.0064 28V13.4545H59.0817V25.4645H65.3175V28H56.0064ZM67.354 28V13.4545H77.1552V15.9901H70.4293V19.456H76.6509V21.9915H70.4293V25.4645H77.1836V28H67.354ZM91.7663 13.4545V28H89.1101L82.782 18.8452H82.6754V28H79.6001V13.4545H82.299L88.5774 22.6023H88.7053V13.4545H91.7663ZM106.473 13.4545V28H103.817L97.489 18.8452H97.3825V28H94.3072V13.4545H97.006L103.284 22.6023H103.412V13.4545H106.473ZM112.089 13.4545V28H109.014V13.4545H112.089ZM117.127 28H113.831L118.853 13.4545H122.816L127.83 28H124.534L120.891 16.7784H120.777L117.127 28ZM116.921 22.2827H124.705V24.6832H116.921V22.2827ZM129.581 28V13.4545H132.656V25.4645H138.892V28H129.581ZM158.391 18.5469H155.28C155.223 18.1444 155.107 17.7869 154.932 17.4744C154.757 17.1572 154.532 16.8873 154.257 16.6648C153.983 16.4422 153.666 16.2718 153.306 16.1534C152.951 16.035 152.565 15.9759 152.148 15.9759C151.395 15.9759 150.739 16.1629 150.181 16.5369C149.622 16.9062 149.189 17.446 148.881 18.1562C148.573 18.8617 148.419 19.7187 148.419 20.7273C148.419 21.7642 148.573 22.6354 148.881 23.3409C149.194 24.0464 149.629 24.5791 150.188 24.9389C150.747 25.2988 151.393 25.4787 152.127 25.4787C152.539 25.4787 152.92 25.4242 153.27 25.3153C153.625 25.2064 153.94 25.0478 154.215 24.8395C154.489 24.6264 154.717 24.3684 154.897 24.0653C155.081 23.7623 155.209 23.4167 155.28 23.0284L158.391 23.0426C158.31 23.7102 158.109 24.3542 157.787 24.9744C157.47 25.59 157.042 26.1416 156.502 26.6293C155.967 27.1122 155.328 27.4957 154.584 27.7798C153.846 28.0592 153.01 28.1989 152.077 28.1989C150.78 28.1989 149.62 27.9053 148.597 27.3182C147.579 26.7311 146.774 25.8812 146.182 24.7685C145.595 23.6558 145.301 22.3087 145.301 20.7273C145.301 19.1411 145.6 17.7917 146.196 16.679C146.793 15.5663 147.603 14.7187 148.625 14.1364C149.648 13.5492 150.799 13.2557 152.077 13.2557C152.92 13.2557 153.701 13.3741 154.421 13.6108C155.145 13.8475 155.787 14.1932 156.346 14.6477C156.904 15.0975 157.359 15.6491 157.709 16.3026C158.064 16.956 158.292 17.7041 158.391 18.5469ZM160.596 28V13.4545H163.672V19.456H169.914V13.4545H172.983V28H169.914V21.9915H163.672V28H160.596ZM178.593 13.4545V28H175.518V13.4545H178.593ZM181.124 13.4545H184.916L188.922 23.2273H189.092L193.098 13.4545H196.891V28H193.908V18.5327H193.787L190.023 27.929H187.991L184.227 18.4972H184.107V28H181.124V13.4545ZM199.424 28V13.4545H209.225V15.9901H202.5V19.456H208.721V21.9915H202.5V25.4645H209.254V28H199.424ZM219.561 17.6378C219.504 17.0649 219.26 16.6198 218.83 16.3026C218.399 15.9853 217.814 15.8267 217.075 15.8267C216.573 15.8267 216.15 15.8977 215.804 16.0398C215.458 16.1771 215.193 16.3688 215.009 16.6151C214.829 16.8613 214.739 17.1406 214.739 17.4531C214.729 17.7135 214.784 17.9408 214.902 18.1349C215.025 18.3291 215.193 18.4972 215.406 18.6392C215.619 18.7765 215.866 18.8973 216.145 19.0014C216.424 19.1009 216.723 19.1861 217.04 19.2571L218.347 19.5696C218.981 19.7116 219.563 19.901 220.094 20.1378C220.624 20.3745 221.083 20.6657 221.472 21.0114C221.86 21.357 222.161 21.7642 222.374 22.233C222.591 22.7017 222.703 23.2391 222.707 23.8452C222.703 24.7353 222.475 25.5071 222.026 26.1605C221.58 26.8092 220.937 27.3134 220.094 27.6733C219.256 28.0284 218.245 28.206 217.061 28.206C215.887 28.206 214.864 28.026 213.993 27.6662C213.126 27.3063 212.449 26.7737 211.962 26.0682C211.479 25.358 211.225 24.4796 211.202 23.4332H214.178C214.211 23.9209 214.35 24.3281 214.597 24.6548C214.848 24.9768 215.181 25.2206 215.598 25.3864C216.019 25.5473 216.495 25.6278 217.026 25.6278C217.546 25.6278 217.999 25.5521 218.382 25.4006C218.77 25.2491 219.071 25.0384 219.284 24.7685C219.497 24.4986 219.604 24.1884 219.604 23.8381C219.604 23.5114 219.507 23.2367 219.312 23.0142C219.123 22.7917 218.844 22.6023 218.474 22.446C218.11 22.2898 217.662 22.1477 217.132 22.0199L215.548 21.6222C214.322 21.3239 213.354 20.8575 212.643 20.223C211.933 19.5885 211.58 18.7339 211.585 17.6591C211.58 16.7784 211.815 16.009 212.288 15.3509C212.767 14.6927 213.422 14.179 214.256 13.8097C215.089 13.4403 216.036 13.2557 217.097 13.2557C218.176 13.2557 219.118 13.4403 219.923 13.8097C220.733 14.179 221.363 14.6927 221.812 15.3509C222.262 16.009 222.494 16.7713 222.509 17.6378H219.561Z" fill="white"/>
</svg>
